<?xml version="1.0" encoding="UTF-8"?>
<svg width="180" height="40" viewBox="0 0 180 40" fill="none" xmlns="http://www.w3.org/2000/svg">
  <!-- Logo Shape -->
  <path d="M10 8L18 4L26 8L34 4V28L26 32L18 28L10 32V8Z" fill="#1c54b0" />
  <path d="M10 8L18 4L26 8L34 4" stroke="#50b6da" stroke-width="2" stroke-linecap="round" />
  <path d="M34 4V28L26 32L18 28L10 32V8" stroke="#50b6da" stroke-width="2" stroke-linecap="round" stroke-linejoin="round" />
  <path d="M18 4V28" stroke="#50b6da" stroke-width="2" stroke-linecap="round" />
  <path d="M26 8V32" stroke="#50b6da" stroke-width="2" stroke-linecap="round" />
  
  <!-- Text -->
  <path d="M48 12V28H44V12H48Z" fill="currentColor" />
  <path d="M50 16H54V28H50V16ZM52 14.5C51.4 14.5 50.9 14.3 50.5 13.9C50.1 13.5 49.9 13 49.9 12.4C49.9 11.8 50.1 11.3 50.5 10.9C50.9 10.5 51.4 10.3 52 10.3C52.6 10.3 53.1 10.5 53.5 10.9C53.9 11.3 54.1 11.8 54.1 12.4C54.1 13 53.9 13.5 53.5 13.9C53.1 14.3 52.6 14.5 52 14.5Z" fill="currentColor" />
  <path d="M63.2 16C64.4 16 65.4 16.4 66.2 17.2C67 18 67.4 19.1 67.4 20.5V28H63.4V21.1C63.4 20.5 63.2 20 62.9 19.7C62.6 19.4 62.1 19.2 61.6 19.2C61 19.2 60.5 19.4 60.1 19.8C59.7 20.2 59.5 20.8 59.5 21.6V28H55.5V16H59.5V17.8C59.9 17.2 60.4 16.7 61.1 16.4C61.8 16.1 62.5 16 63.2 16Z" fill="currentColor" />
  <path d="M75.4 28.2C74.2 28.2 73.1 28 72.1 27.5C71.1 27 70.3 26.3 69.7 25.4C69.1 24.5 68.8 23.4 68.8 22.2C68.8 21 69.1 19.9 69.7 19C70.3 18.1 71.1 17.4 72.1 16.9C73.1 16.4 74.2 16.2 75.4 16.2C76.6 16.2 77.7 16.4 78.7 16.9C79.7 17.4 80.5 18.1 81.1 19C81.7 19.9 82 21 82 22.2C82 23.4 81.7 24.5 81.1 25.4C80.5 26.3 79.7 27 78.7 27.5C77.7 28 76.6 28.2 75.4 28.2ZM75.4 24.8C76 24.8 76.5 24.6 76.9 24.1C77.3 23.6 77.5 23 77.5 22.2C77.5 21.4 77.3 20.8 76.9 20.3C76.5 19.8 76 19.6 75.4 19.6C74.8 19.6 74.3 19.8 73.9 20.3C73.5 20.8 73.3 21.4 73.3 22.2C73.3 23 73.5 23.6 73.9 24.1C74.3 24.6 74.8 24.8 75.4 24.8Z" fill="currentColor" />
  <path d="M89.8 16C91 16 92 16.4 92.8 17.2C93.6 18 94 19.1 94 20.5V28H90V21.1C90 20.5 89.8 20 89.5 19.7C89.2 19.4 88.7 19.2 88.2 19.2C87.6 19.2 87.1 19.4 86.7 19.8C86.3 20.2 86.1 20.8 86.1 21.6V28H82.1V10H86.1V17.8C86.5 17.2 87 16.7 87.7 16.4C88.4 16.1 89.1 16 89.8 16Z" fill="currentColor" />
  <path d="M102.2 28.2C101 28.2 99.9 28 98.9 27.5C97.9 27 97.1 26.3 96.5 25.4C95.9 24.5 95.6 23.4 95.6 22.2C95.6 21 95.9 19.9 96.5 19C97.1 18.1 97.9 17.4 98.9 16.9C99.9 16.4 101 16.2 102.2 16.2C103.4 16.2 104.5 16.4 105.5 16.9C106.5 17.4 107.3 18.1 107.9 19C108.5 19.9 108.8 21 108.8 22.2C108.8 23.4 108.5 24.5 107.9 25.4C107.3 26.3 106.5 27 105.5 27.5C104.5 28 103.4 28.2 102.2 28.2ZM102.2 24.8C102.8 24.8 103.3 24.6 103.7 24.1C104.1 23.6 104.3 23 104.3 22.2C104.3 21.4 104.1 20.8 103.7 20.3C103.3 19.8 102.8 19.6 102.2 19.6C101.6 19.6 101.1 19.8 100.7 20.3C100.3 20.8 100.1 21.4 100.1 22.2C100.1 23 100.3 23.6 100.7 24.1C101.1 24.6 101.6 24.8 102.2 24.8Z" fill="currentColor" />
  <path d="M116.6 16C117.8 16 118.8 16.4 119.6 17.2C120.4 18 120.8 19.1 120.8 20.5V28H116.8V21.1C116.8 20.5 116.6 20 116.3 19.7C116 19.4 115.5 19.2 115 19.2C114.4 19.2 113.9 19.4 113.5 19.8C113.1 20.2 112.9 20.8 112.9 21.6V28H108.9V16H112.9V17.8C113.3 17.2 113.8 16.7 114.5 16.4C115.2 16.1 115.9 16 116.6 16Z" fill="currentColor" />
  <path d="M129.8 16C130.9 16 131.9 16.2 132.7 16.7C133.5 17.2 134.1 17.8 134.5 18.7V16H138.5V28C138.5 29.2 138.2 30.3 137.7 31.3C137.2 32.3 136.4 33.1 135.3 33.7C134.2 34.3 132.9 34.6 131.3 34.6C129.1 34.6 127.3 34.1 125.9 33.1C124.5 32.1 123.7 30.7 123.5 29H127.4C127.6 29.5 127.9 29.9 128.5 30.2C129.1 30.5 129.7 30.6 130.5 30.6C131.4 30.6 132.1 30.3 132.7 29.8C133.3 29.3 133.5 28.5 133.5 27.4V25.3C133.1 26.2 132.5 26.8 131.7 27.3C130.9 27.8 129.9 28 128.8 28C127.7 28 126.7 27.7 125.8 27.2C124.9 26.7 124.2 26 123.7 25.1C123.2 24.2 122.9 23.1 122.9 21.9C122.9 20.7 123.2 19.6 123.7 18.7C124.2 17.8 124.9 17.1 125.8 16.6C126.7 16.2 127.7 16 128.8 16H129.8ZM134.5 22C134.5 21.1 134.2 20.4 133.7 19.9C133.2 19.4 132.6 19.1 131.8 19.1C131 19.1 130.4 19.4 129.9 19.9C129.4 20.4 129.1 21.1 129.1 22C129.1 22.9 129.4 23.6 129.9 24.1C130.4 24.6 131 24.9 131.8 24.9C132.6 24.9 133.2 24.6 133.7 24.1C134.2 23.6 134.5 22.9 134.5 22Z" fill="currentColor" />
  <path d="M147.1 28.2C145.9 28.2 144.8 28 143.8 27.5C142.8 27 142 26.3 141.4 25.4C140.8 24.5 140.5 23.4 140.5 22.2C140.5 21 140.8 19.9 141.4 19C142 18.1 142.8 17.4 143.8 16.9C144.8 16.4 145.9 16.2 147.1 16.2C148.3 16.2 149.4 16.4 150.4 16.9C151.4 17.4 152.2 18.1 152.8 19C153.4 19.9 153.7 21 153.7 22.2C153.7 23.4 153.4 24.5 152.8 25.4C152.2 26.3 151.4 27 150.4 27.5C149.4 28 148.3 28.2 147.1 28.2ZM147.1 24.8C147.7 24.8 148.2 24.6 148.6 24.1C149 23.6 149.2 23 149.2 22.2C149.2 21.4 149 20.8 148.6 20.3C148.2 19.8 147.7 19.6 147.1 19.6C146.5 19.6 146 19.8 145.6 20.3C145.2 20.8 145 21.4 145 22.2C145 23 145.2 23.6 145.6 24.1C146 24.6 146.5 24.8 147.1 24.8Z" fill="currentColor" />
  <path d="M154.9 22.1C154.9 20.9 155.1 19.8 155.6 18.9C156.1 18 156.8 17.3 157.7 16.8C158.6 16.3 159.6 16 160.7 16C161.7 16 162.5 16.2 163.2 16.5C163.9 16.8 164.5 17.3 164.9 17.8V16H168.9V28H164.9V26.2C164.5 26.7 163.9 27.2 163.2 27.5C162.5 27.8 161.7 28 160.7 28C159.6 28 158.6 27.7 157.7 27.2C156.8 26.7 156.1 26 155.6 25.1C155.1 24.2 154.9 23.2 154.9 22.1ZM164.9 22.1C164.9 21.3 164.7 20.6 164.2 20.1C163.7 19.6 163.1 19.4 162.4 19.4C161.7 19.4 161.1 19.6 160.6 20.1C160.1 20.6 159.9 21.2 159.9 22.1C159.9 22.9 160.1 23.6 160.6 24.1C161.1 24.6 161.7 24.8 162.4 24.8C163.1 24.8 163.7 24.6 164.2 24.1C164.7 23.6 164.9 22.9 164.9 22.1Z" fill="currentColor" />
  <path d="M170.9 22.1C170.9 20.9 171.2 19.8 171.8 18.9C172.4 18 173.2 17.3 174.2 16.8C175.2 16.3 176.3 16 177.5 16C179.1 16 180.4 16.4 181.5 17.1C182.6 17.8 183.3 18.9 183.7 20.2H179.5C179.2 19.3 178.5 18.8 177.5 18.8C176.8 18.8 176.2 19.1 175.8 19.6C175.4 20.1 175.2 21 175.2 22.1C175.2 23.2 175.4 24 175.8 24.5C176.2 25 176.8 25.3 177.5 25.3C178.5 25.3 179.2 24.8 179.5 23.9H183.7C183.3 25.2 182.6 26.2 181.5 27C180.4 27.8 179.1 28.1 177.5 28.1C176.3 28.1 175.2 27.8 174.2 27.3C173.2 26.8 172.4 26.1 171.8 25.2C171.2 24.3 170.9 23.3 170.9 22.1Z" fill="currentColor" />
  <path d="M184.9 22.1C184.9 20.9 185.1 19.8 185.6 18.9C186.1 18 186.8 17.3 187.7 16.8C188.6 16.3 189.6 16 190.7 16C191.7 16 192.5 16.2 193.2 16.5C193.9 16.8 194.5 17.3 194.9 17.8V16H198.9V28H194.9V26.2C194.5 26.7 193.9 27.2 193.2 27.5C192.5 27.8 191.7 28 190.7 28C189.6 28 188.6 27.7 187.7 27.2C186.8 26.7 186.1 26 185.6 25.1C185.1 24.2 184.9 23.2 184.9 22.1ZM194.9 22.1C194.9 21.3 194.7 20.6 194.2 20.1C193.7 19.6 193.1 19.4 192.4 19.4C191.7 19.4 191.1 19.6 190.6 20.1C190.1 20.6 189.9 21.2 189.9 22.1C189.9 22.9 190.1 23.6 190.6 24.1C191.1 24.6 191.7 24.8 192.4 24.8C193.1 24.8 193.7 24.6 194.2 24.1C194.7 23.6 194.9 22.9 194.9 22.1Z" fill="currentColor" />
  
  <!-- .co.za -->
  <path d="M146 34.5C145.2 34.5 144.5 34.3 143.9 34C143.3 33.7 142.8 33.2 142.5 32.6C142.2 32 142 31.3 142 30.5C142 29.7 142.2 29 142.5 28.4C142.8 27.8 143.3 27.3 143.9 27C144.5 26.7 145.2 26.5 146 26.5C146.8 26.5 147.5 26.7 148.1 27C148.7 27.3 149.2 27.8 149.5 28.4C149.8 29 150 29.7 150 30.5C150 31.3 149.8 32 149.5 32.6C149.2 33.2 148.7 33.7 148.1 34C147.5 34.3 146.8 34.5 146 34.5ZM146 33.3C146.8 33.3 147.4 33.1 147.9 32.6C148.4 32.1 148.6 31.4 148.6 30.5C148.6 29.6 148.4 28.9 147.9 28.4C147.4 27.9 146.8 27.7 146 27.7C145.2 27.7 144.6 27.9 144.1 28.4C143.6 28.9 143.4 29.6 143.4 30.5C143.4 31.4 143.6 32.1 144.1 32.6C144.6 33.1 145.2 33.3 146 33.3Z" fill="currentColor" />
  <path d="M151.5 34.5C151.1 34.5 150.8 34.4 150.6 34.2C150.4 34 150.3 33.7 150.3 33.3V27.7H151.7V32.9H153.1V34.3H151.5V34.5Z" fill="currentColor" />
  <path d="M154.5 34.5C154.1 34.5 153.8 34.4 153.6 34.2C153.4 34 153.3 33.7 153.3 33.3V27.7H154.7V32.9H156.1V34.3H154.5V34.5Z" fill="currentColor" />
  <path d="M157.5 34.5C157.1 34.5 156.8 34.4 156.6 34.2C156.4 34 156.3 33.7 156.3 33.3V27.7H157.7V32.9H159.1V34.3H157.5V34.5Z" fill="currentColor" />
  <path d="M160.5 34.5C160.1 34.5 159.8 34.4 159.6 34.2C159.4 34 159.3 33.7 159.3 33.3V27.7H160.7V32.9H162.1V34.3H160.5V34.5Z" fill="currentColor" />
  <path d="M163.5 34.5C163.1 34.5 162.8 34.4 162.6 34.2C162.4 34 162.3 33.7 162.3 33.3V27.7H163.7V32.9H165.1V34.3H163.5V34.5Z" fill="currentColor" />
  <path d="M166.5 34.5C166.1 34.5 165.8 34.4 165.6 34.2C165.4 34 165.3 33.7 165.3 33.3V27.7H166.7V32.9H168.1V34.3H166.5V34.5Z" fill="currentColor" />
  <path d="M169.5 34.5C169.1 34.5 168.8 34.4 168.6 34.2C168.4 34 168.3 33.7 168.3 33.3V27.7H169.7V32.9H171.1V34.3H169.5V34.5Z" fill="currentColor" />
  <path d="M172.5 34.5C172.1 34.5 171.8 34.4 171.6 34.2C171.4 34 171.3 33.7 171.3 33.3V27.7H172.7V32.9H174.1V34.3H172.5V34.5Z" fill="currentColor" />
  <path d="M175.5 34.5C175.1 34.5 174.8 34.4 174.6 34.2C174.4 34 174.3 33.7 174.3 33.3V27.7H175.7V32.9H177.1V34.3H175.5V34.5Z" fill="currentColor" />
  <path d="M178.5 34.5C178.1 34.5 177.8 34.4 177.6 34.2C177.4 34 177.3 33.7 177.3 33.3V27.7H178.7V32.9H180.1V34.3H178.5V34.5Z" fill="currentColor" />
</svg>
